Coordinates
version=1
nRows=10
nColumns=63
inDegrees=yes

Units are S.I. units (second, meters, Newtons, ...)
If the header above contains a line with 'inDegrees', this indicates whether rotational values are in degrees (yes) or radians (no).

endheader
time	pelvis_tilt	pelvis_list	pelvis_rotation	pelvis_tx	pelvis_ty	pelvis_tz	hip_flexion_r	hip_adduction_r	hip_rotation_r	knee_angle_r	knee_angle_r_beta	ankle_angle_r	subtalar_angle_r	mtp_angle_r	hip_flexion_l	hip_adduction_l	hip_rotation_l	knee_angle_l	knee_angle_l_beta	ankle_angle_l	subtalar_angle_l	mtp_angle_l	L5_S1_Flex_Ext	L5_S1_Lat_Bending	L5_S1_axial_rotation	L4_L5_Flex_Ext	L4_L5_Lat_Bending	L4_L5_axial_rotation	L3_L4_Flex_Ext	L3_L4_Lat_Bending	L3_L4_axial_rotation	L2_L3_Flex_Ext	L2_L3_Lat_Bending	L2_L3_axial_rotation	L1_L2_Flex_Ext	L1_L2_Lat_Bending	L1_L2_axial_rotation	L1_T12_Flex_Ext	L1_T12_Lat_Bending	L1_T12_axial_rotation	Abs_r3	Abs_r2	Abs_r1	Abs_t1	Abs_t2	neck_flexion	neck_bending	neck_rotation	arm_flex_r	arm_add_r	arm_rot_r	elbow_flex_r	pro_sup_r	wrist_flex_r	wrist_dev_r	arm_flex_l	arm_add_l	arm_rot_l	elbow_flex_l	pro_sup_l	wrist_flex_l	wrist_dev_l
      3.06779661	     -2.23601001	     -5.45976895	     95.36297810	      0.43719013	      0.67701056	      1.06285583	      7.02955790	     -2.41625561	     -8.29760559	      5.94167257	      0.10370175	     24.55612403	      9.02423029	      0.00000000	      9.90969940	      0.69232360	     -6.94540431	     12.70968134	      0.22182579	     28.11940230	      9.98570635	      0.00000000	     -0.04949822	     -0.10157233	      2.02619137	     -0.09192314	     -0.13509119	      2.15282833	     -0.08132062	     -0.24696295	      2.15282833	     -0.05657151	     -0.24696295	      1.77291745	     -0.04596404	     -0.20712629	      1.64628049	     -0.02828328	     -0.15733553	      1.51964353	     -0.35356080	     -1.14900647	     11.26906856	      0.00000000	      0.00000000	     26.07857759	     -0.52733350	     -6.06625138	      8.49200699	     -7.82435825	    130.94763206	      0.60918174	      1.55652041	     -6.27576734	    -10.53077489	     18.99939851	    -16.06603948	     62.58618135	     38.20370867	     88.42525445	    -18.45137341	     -4.36603786
      3.08474576	     -2.80967501	     -5.47456117	     95.30698568	      0.43918391	      0.67746652	      1.06205469	      6.85882260	     -2.84799290	     -7.76976423	      5.76833140	      0.10067638	     24.38783182	      8.27978193	      0.00000000	      9.66058970	      1.16089271	     -7.15376277	     12.45180165	      0.21732494	     27.55495518	     10.17600985	      0.00000000	     -0.03193824	     -0.22668675	      1.99293765	     -0.05931250	     -0.30149338	      2.11749626	     -0.05247133	     -0.55116617	      2.11749626	     -0.03650221	     -0.55116617	      1.74382045	     -0.02965785	     -0.46225963	      1.61926184	     -0.01824951	     -0.35113778	      1.49470324	     -0.22813165	     -2.56432590	     11.08412135	      0.00000000	      0.00000000	     25.84746256	      0.61089039	     -7.26903646	     10.51384613	     -6.03034224	    128.76968413	      0.76127503	      1.24140199	     -2.78238026	    -10.54517406	     19.20500961	    -15.97623012	     59.31305405	     41.51710459	     88.43970103	    -17.00421632	     -2.77161042
      3.10169492	     -3.10847966	     -5.42562399	     95.34168048	      0.44056981	      0.67794723	      1.06093263	      6.63523727	     -3.01454147	     -7.15350947	      5.62041420	      0.09809473	     24.27713904	      7.39744884	      0.00000000	      9.41174835	      1.35575442	     -7.64573979	     12.29989953	      0.21467374	     27.36412026	     10.60306600	      0.00000000	     -0.00525329	     -0.30088342	      1.93554322	     -0.00975588	     -0.40017494	      2.05651467	     -0.00863063	     -0.73156794	      2.05651467	     -0.00600398	     -0.73156794	      1.69360032	     -0.00487820	     -0.61356146	      1.57262887	     -0.00300173	     -0.46606841	      1.45165742	     -0.03752372	     -3.40365337	     10.76491074	      0.00000000	      0.00000000	     25.63271820	      1.24000829	     -7.74245657	     12.41199838	     -4.49349708	    125.07184404	      1.43720803	      1.08500730	      3.20623917	    -10.57473174	     19.21969334	    -15.30415481	     56.14283888	     44.21118148	     88.43854849	    -15.87329006	     -1.80617156
      3.11864407	     -1.89086259	     -5.33575006	     95.45225019	      0.43720948	      0.67643989	      1.06015068	      6.44622373	     -1.77590270	     -4.60929814	      5.26664996	      0.09192038	     23.76205195	      3.85820812	      0.00000000	      9.64018916	      0.20239814	     -8.03614738	     12.91945442	      0.22548702	     28.63260396	     11.03824518	      0.00000000	      0.02599767	     -0.12545989	      2.28651718	      0.04828027	     -0.16686165	      2.42942451	      0.04271157	     -0.30504318	      2.42942451	      0.02971274	     -0.30504318	      2.00070253	      0.02414144	     -0.25583781	      1.85779521	      0.01485507	     -0.19433737	      1.71488789	      0.18569875	     -1.41922737	     12.71692262	      0.00000000	      0.00000000	     26.28939893	     -0.67010183	     -9.09317931	      2.25882541	    -10.85777850	     27.99432447	     33.17384614	     70.80169735	     -6.61300571	     10.25654234	     20.93408389	    -12.04266643	     57.13863314	     44.91290494	     88.45202237	    -15.13355354	     -1.90093674
      3.13559322	     -2.05096444	     -5.25075781	     95.49658180	      0.43795311	      0.67723345	      1.05856619	      6.19075374	     -1.86759869	     -4.44147623	      5.09538119	      0.08893118	     23.96881654	      3.86850629	      0.00000000	      9.34434510	      0.31581427	     -8.33547973	     12.66341494	      0.22101829	     28.77225360	     11.21735146	      0.00000000	      0.05878998	     -0.17783668	      2.32795348	      0.10917888	     -0.23652278	      2.47345057	      0.09658606	     -0.43239210	      2.47345057	      0.06719107	     -0.43239210	      2.03695929	      0.05459238	     -0.36264456	      1.89146220	      0.03359260	     -0.27546902	      1.74596511	      0.41993097	     -2.01172408	     12.94737886	      0.00000000	      0.00000000	     26.10792385	     -0.42487995	    -10.16816272	      3.38862972	    -10.02686834	     30.34439625	     34.57375498	     69.27354466	     -3.18680087	     12.60303635	     22.08255222	    -10.95765348	     57.92428259	     46.01123297	     88.44542799	    -15.25366782	     -2.67281353
      3.15254237	     -2.13264940	     -5.00600186	     95.35437731	      0.43872534	      0.67855991	      1.05704546	      5.79140806	     -1.84030881	     -3.68952569	      4.89691504	      0.08546729	     23.97251280	      3.35028059	      0.00000000	      8.91228381	      0.24918029	     -9.27665675	     12.47970201	      0.21781189	     29.03579254	     12.23101135	      0.00000000	      0.07412266	     -0.21061192	      2.38755972	      0.13765319	     -0.28011386	      2.53678221	      0.12177612	     -0.51208183	      2.53678221	      0.08471479	     -0.51208183	      2.08911476	      0.06883030	     -0.42947983	      1.93989228	      0.04235369	     -0.32623787	      1.79066979	      0.52945074	     -2.38248418	     13.27889092	      0.00000000	      0.00000000	     25.69362952	     -0.23683678	    -10.99238083	      4.98049422	    -10.39299131	     36.82943096	     36.75616919	     62.15881510	     -1.09097089	     13.12229245	     23.49158256	    -10.05906788	     60.14210392	     46.65651444	     88.41504928	    -15.69326994	     -4.17812356
      3.16949153	     -2.12980409	     -4.82271642	     95.23520716	      0.43901752	      0.67999377	      1.05572617	      5.45456508	     -1.78726897	     -3.44314998	      4.68584145	      0.08178336	     23.93501498	      3.37610871	      0.00000000	      8.53446562	      0.23061104	     -9.39574643	     12.21013092	      0.21310699	     29.02975193	     12.18224703	      0.00000000	      0.09777074	     -0.22228380	      2.44002093	      0.18157005	     -0.29563746	      2.59252224	      0.16062756	     -0.54046084	      2.59252224	      0.11174218	     -0.54046084	      2.13501832	      0.09078991	     -0.45328113	      1.98251701	      0.05586620	     -0.34431761	      1.83001570	      0.69836665	     -2.51451886	     13.57066442	      0.00000000	      0.00000000	     25.23581340	      0.03868281	    -11.37126527	      5.55245960	    -10.61700609	     38.40862046	     40.30080993	     62.45493061	      1.53187504	     14.37382843	     24.64723355	     -9.38706787	     62.37520542	     47.49162575	     88.55050692	    -14.19963607	     -4.98596090
      3.18644068	     -2.12832946	     -4.50809594	     94.73268598	      0.43972277	      0.68163447	      1.05446978	      5.03932543	     -1.68553573	     -2.43665427	      4.54554507	      0.07933473	     23.76293026	      2.84563918	      0.00000000	      7.95422366	      0.18398092	     -9.51079529	     11.91029016	      0.20787378	     28.87998928	     11.70864061	      0.00000000	      0.09525796	     -0.22920717	      2.65251312	      0.17690355	     -0.30484554	      2.81829519	      0.15649930	     -0.55729432	      2.81829519	      0.10887032	     -0.55729432	      2.32094898	      0.08845654	     -0.46739926	      2.15516691	      0.05443040	     -0.35504191	      1.98938484	      0.68041806	     -2.59283736	     14.75248223	      0.00000000	      0.00000000	     24.56603516	     -0.12970293	    -12.54761797	      4.99957706	    -10.87106229	     36.51865235	     44.76065374	     64.70417833	      4.25149011	     15.15632018	     26.23248633	     -8.72279406	     66.32786593	     48.05047257	     88.51810116	    -11.49258403	     -5.85519688
      3.20338983	     -2.01101754	     -4.24086501	     94.43698577	      0.43979245	      0.68320180	      1.05361093	      4.66747919	     -1.53841188	     -2.08483421	      4.43351032	      0.07737935	     23.57656402	      2.83209233	      0.00000000	      7.46427421	      0.06329635	     -9.61340310	     11.65117075	      0.20335129	     28.57192095	     11.36478502	      0.00000000	      0.09436990	     -0.20830203	      2.72888183	      0.17525434	     -0.27704170	      2.89943695	      0.15504031	     -0.50646555	      2.89943695	      0.10785536	     -0.50646555	      2.38777160	      0.08763189	     -0.42476950	      2.21721649	      0.05392296	     -0.32265984	      2.04666137	      0.67407476	     -2.35635422	     15.17722208	      0.00000000	      0.00000000	     23.96834582	      0.24103369	    -12.27476864	      4.80336369	    -11.60497688	     36.19844589	     49.22303302	     65.75932017	      5.44297867	     14.75930006	     27.26986050	     -8.44261981	     69.60899442	     49.21749325	     88.39105146	     -7.38593675	     -5.01990902
      3.22033898	     -2.16408474	     -4.13400070	     93.72287170	      0.44066486	      0.68427917	      1.05219353	      4.55225186	     -1.64153196	     -1.30136967	      4.55144758	      0.07943775	     23.62746194	      2.66212341	      0.00000000	      6.99802231	      0.22715437	     -9.59292859	     11.31462632	      0.19747748	     28.07079254	     10.26449593	      0.00000000	      0.10212907	     -0.23802303	      2.93336383	      0.18966389	     -0.31657063	      3.11669907	      0.16778784	     -0.57872919	      3.11669907	      0.11672331	     -0.57872919	      2.56669335	      0.09483705	     -0.48537656	      2.38335811	      0.05835655	     -0.36869767	      2.20002287	      0.72949770	     -2.69256411	     16.31448963	      0.00000000	      0.00000000	     23.57664935	      0.23167915	    -13.66969380	      3.60206415	    -11.63747264	     33.48663004	     53.44784103	     67.11968381	      6.26007175	     14.69769363	     27.39499424	     -8.18145917	     70.39108764	     50.78973587	     87.91114284	      1.99373690	     -0.78951140
